<?xml version="1.0" encoding="UTF-8" standalone="no"?>
<!-- Created with Inkscape (http://www.inkscape.org/) -->
<svg
   xmlns:dc="http://purl.org/dc/elements/1.1/"
   xmlns:cc="http://creativecommons.org/ns#"
   xmlns:rdf="http://www.w3.org/1999/02/22-rdf-syntax-ns#"
   xmlns:svg="http://www.w3.org/2000/svg"
   xmlns="http://www.w3.org/2000/svg"
   xmlns:sodipodi="http://sodipodi.sourceforge.net/DTD/sodipodi-0.dtd"
   xmlns:inkscape="http://www.inkscape.org/namespaces/inkscape"
   width="32"
   height="32"
   id="svg2"
   sodipodi:version="0.32"
   inkscape:version="0.46"
   version="1.0"
   sodipodi:docname="arrow.svg"
   inkscape:output_extension="org.inkscape.output.svg.inkscape"
   inkscape:export-xdpi="67.5"
   inkscape:export-ydpi="67.5"
   inkscape:export-filename="C:\Documents and Settings\M\Moje dokumenty\eclipse workspace\stigma\img\client\arrow_hover.png">
  <defs
     id="defs4">
    <inkscape:perspective
       sodipodi:type="inkscape:persp3d"
       inkscape:vp_x="0 : 16 : 1"
       inkscape:vp_y="0 : 1000 : 0"
       inkscape:vp_z="32 : 16 : 1"
       inkscape:persp3d-origin="16 : 10.666667 : 1"
       id="perspective2395" />
  </defs>
  <sodipodi:namedview
     id="base"
     pagecolor="#ffffff"
     bordercolor="#666666"
     borderopacity="1.0"
     gridtolerance="10000"
     guidetolerance="10"
     objecttolerance="10"
     inkscape:pageopacity="0.0"
     inkscape:pageshadow="2"
     inkscape:zoom="11.313708"
     inkscape:cx="5.2174159"
     inkscape:cy="15.24248"
     inkscape:document-units="px"
     inkscape:current-layer="layer1"
     showgrid="true"
     inkscape:window-width="734"
     inkscape:window-height="683"
     inkscape:window-x="66"
     inkscape:window-y="83"
     showguides="true"
     inkscape:guide-bbox="true">
    <inkscape:grid
       type="xygrid"
       id="grid2383"
       visible="true"
       enabled="true"
       spacingx="2px"
       spacingy="2px" />
    <sodipodi:guide
       orientation="0,1"
       position="16.617009,32.173359"
       id="guide2394" />
  </sodipodi:namedview>
  <metadata
     id="metadata7">
    <rdf:RDF>
      <cc:Work
         rdf:about="">
        <dc:format>image/svg+xml</dc:format>
        <dc:type
           rdf:resource="http://purl.org/dc/dcmitype/StillImage" />
      </cc:Work>
    </rdf:RDF>
  </metadata>
  <g
     inkscape:label="Layer 1"
     inkscape:groupmode="layer"
     id="layer1">
    <path
       id="path3213"
       style="fill:#3f3f3f;fill-opacity:1;fill-rule:evenodd;stroke:none;stroke-width:1px;stroke-linecap:butt;stroke-linejoin:miter;stroke-opacity:1"
       d="M 2,30 C 6.6666667,20.666667 16,20.666667 16,20.666667 C 16,20.666667 25.333333,20.666667 30,30 C 26.487931,28.243966 22.975611,27.153217 19.463542,26.71875 C 19.468415,26.643224 19.5,26.57675 19.5,26.5 C 19.5,24.568 17.932,23 16,23 C 14.068,23 12.5,24.568 12.5,26.5 C 12.5,26.57675 12.531585,26.643224 12.536458,26.71875 C 9.0243892,27.153217 5.5120692,28.243966 2,30 z"
       sodipodi:nodetypes="ccccssscc" />
    <path
       style="fill:#7f7f7f;fill-opacity:1;fill-rule:evenodd;stroke:none;stroke-width:0.50000000000000000;stroke-linecap:butt;stroke-linejoin:miter;stroke-miterlimit:4;stroke-dasharray:none;stroke-opacity:1"
       d="M 30,30 C 25.333333,20.666667 16,20.666667 16,20.666667 C 16,20.666667 16,20.666667 16,20.666667 L 16,2 C 16,2 16,2 16,2 C 16,2 30,16 30,30 z"
       id="path3205" />
    <path
       style="fill:#bebebe;fill-opacity:1;fill-rule:evenodd;stroke:none;stroke-width:0.50000000000000000;stroke-linecap:butt;stroke-linejoin:miter;stroke-miterlimit:4;stroke-dasharray:none;stroke-opacity:1"
       d="M 2,30 C 6.6666667,20.666667 16,20.666667 16,20.666667 C 16,20.666667 16,20.666667 16,20.666667 L 16,2 C 16,2 16,2 16,2 C 16,2 2,16 2,30 z"
       id="path3203" />
    <path
       id="path2396"
       style="fill:none;fill-rule:evenodd;stroke:#ffffff;stroke-width:1;stroke-linecap:butt;stroke-linejoin:miter;stroke-miterlimit:4;stroke-dasharray:none;stroke-opacity:1"
       d="M 16,20.666667 L 16,2 M 30,30 C 25.333333,20.666667 16,20.666667 16,20.666667 C 16,20.666667 6.6666667,20.666667 2,30"
       sodipodi:nodetypes="ccccc" />
    <path
       style="fill:none;fill-rule:evenodd;stroke:#ffffff;stroke-width:2;stroke-linecap:butt;stroke-linejoin:miter;stroke-opacity:1;stroke-miterlimit:4;stroke-dasharray:none"
       d="M 16,2 C 16,2 2,16 2,30 C 5.5120689,28.243966 9.0243892,27.153217 12.536458,26.71875 C 12.531585,26.643224 12.5,26.57675 12.5,26.5 C 12.5,24.568 14.068,23 16,23 C 17.932,23 19.5,24.568 19.5,26.5 C 19.5,26.57675 19.468415,26.643224 19.463542,26.71875 C 22.975611,27.153217 26.487931,28.243966 30,30 C 30,16 16,2 16,2 z"
       id="path2392" />
  </g>
</svg>
