<?xml version="1.0" encoding="UTF-8" standalone="no"?>
<!-- Created with Inkscape (http://www.inkscape.org/) -->
<svg
   xmlns:dc="http://purl.org/dc/elements/1.1/"
   xmlns:cc="http://creativecommons.org/ns#"
   xmlns:rdf="http://www.w3.org/1999/02/22-rdf-syntax-ns#"
   xmlns:svg="http://www.w3.org/2000/svg"
   xmlns="http://www.w3.org/2000/svg"
   xmlns:sodipodi="http://sodipodi.sourceforge.net/DTD/sodipodi-0.dtd"
   xmlns:inkscape="http://www.inkscape.org/namespaces/inkscape"
   height="297mm"
   width="210mm"
   id="svg2"
   sodipodi:version="0.32"
   inkscape:version="0.46"
   sodipodi:docname="Stigma_logo_new_uncut.svg"
   inkscape:output_extension="org.inkscape.output.svg.inkscape"
   version="1.0">
  <defs
     id="defs4">
    <inkscape:perspective
       sodipodi:type="inkscape:persp3d"
       inkscape:vp_x="0 : 526.18109 : 1"
       inkscape:vp_y="0 : 1000 : 0"
       inkscape:vp_z="744.09448 : 526.18109 : 1"
       inkscape:persp3d-origin="372.04724 : 350.78739 : 1"
       id="perspective2489" />
  </defs>
  <sodipodi:namedview
     id="base"
     pagecolor="#ffffff"
     bordercolor="#666666"
     borderopacity="1.0"
     inkscape:pageopacity="0.0"
     inkscape:pageshadow="2"
     inkscape:cx="350.26814"
     inkscape:cy="747.21764"
     inkscape:zoom="1.7943139"
     inkscape:document-units="px"
     inkscape:current-layer="layer2"
     inkscape:window-width="1280"
     inkscape:window-height="774"
     inkscape:window-x="0"
     inkscape:window-y="0"
     showgrid="false" />
  <metadata
     id="metadata7">
    <rdf:RDF>
      <cc:Work
         rdf:about="">
        <dc:format>image/svg+xml</dc:format>
        <dc:type
           rdf:resource="http://purl.org/dc/dcmitype/StillImage" />
        <cc:license
           rdf:resource="http://creativecommons.org/licenses/by-sa/3.0/" />
        <dc:creator>
          <cc:Agent>
            <dc:title>em3</dc:title>
          </cc:Agent>
        </dc:creator>
      </cc:Work>
      <cc:License
         rdf:about="http://creativecommons.org/licenses/by-sa/3.0/">
        <cc:permits
           rdf:resource="http://creativecommons.org/ns#Reproduction" />
        <cc:permits
           rdf:resource="http://creativecommons.org/ns#Distribution" />
        <cc:requires
           rdf:resource="http://creativecommons.org/ns#Notice" />
        <cc:requires
           rdf:resource="http://creativecommons.org/ns#Attribution" />
        <cc:permits
           rdf:resource="http://creativecommons.org/ns#DerivativeWorks" />
        <cc:requires
           rdf:resource="http://creativecommons.org/ns#ShareAlike" />
      </cc:License>
    </rdf:RDF>
  </metadata>
  <g
     inkscape:groupmode="layer"
     id="layer2"
     inkscape:label="Line"
     style="display:inline">
    <path
       id="path8461"
       d="M 507.5625,142.46875 C 514.82023,181.67852 519.37253,224.8635 500.78125,261.5625 C 495.76049,270.47129 489.56043,279.49689 480.59375,284.59375 C 427.80143,249.17166 346.97841,265.63933 314.22698,320.63357 C 295.0459,352.95898 295.67435,393.4361 304.49971,429.02198 C 312.58514,458.98501 335.62335,483.28346 363.90625,495.34375 C 377.83369,502.08428 393.30763,504.73072 407.625,510.375 C 409.88949,511.41759 415.54866,514.69161 412.65625,517.53125 C 407.16695,519.48089 401.4331,515.18854 396.53125,513.1875 C 389.56672,509.12212 382.92528,504.5499 375.6875,500.96875 C 384.71219,518.53537 380.35327,541.44644 394.46875,556.46875 C 408.16673,563.94174 425.78045,565.62274 440.65625,560.1875 C 461.48951,552.75296 470.08257,527.57672 465.5625,507.15625 C 462.73586,491.61851 452.32809,478.50997 438.53125,471.1875 C 416.11108,457.409 385.98693,455.06431 369,433.1875 C 352.84948,410.97248 346.22539,379.98056 357.84375,354.46875 C 370.94779,328.81315 401.61434,313.81991 429.75,318.375 C 449.89201,322.48519 465.57615,337.08187 480.5625,350.1875 C 529.16365,329.43953 560.93567,280.46077 569.15625,229.3125 C 571.66992,215.06095 574.21134,200.20202 571.28125,185.84375 C 557.66369,162.04853 533.20306,145.95556 506.96875,139.28125 C 507.16667,140.34375 507.36458,141.40625 507.5625,142.46875 z"
       style="opacity:0.09174314;fill:#000000;fill-opacity:1;fill-rule:evenodd;stroke:none;stroke-width:1;stroke-linecap:butt;stroke-linejoin:miter;stroke-miterlimit:4;stroke-dasharray:none;stroke-opacity:1;display:inline" />
    <path
       id="path8463"
       d="M 203.84375,139.5625 C 178.17508,148.47955 152.23577,164.01134 141.46875,190.125 C 140.83084,240.86269 159.00956,293.97639 197.9375,327.75 C 208.5462,337.02484 220.67209,344.31066 233.375,350.25 C 251.3938,334.64663 271.8067,315.70754 297.40625,317.5 C 325.25308,319.35805 354.30932,337.97086 360.34375,366.46875 C 365.71271,392.80833 357.46893,421.72793 338.1875,440.5625 C 314.84342,460.26328 279.83275,460.58292 259.3637,484.40082 C 241.57472,504.49969 243.1337,540.53477 265.78125,556.28125 C 282.12742,566.55082 304.92602,565.56874 320.90625,555.09375 C 331.34599,543.19842 329.89877,525.99541 334.5625,511.78125 C 334.80288,506.7526 327.87239,504.97194 324.9375,508.625 C 317.61538,512.47026 309.284,520.23128 300.625,516.84375 C 299.7531,510.98245 307.7742,510.59752 311.40452,508.70989 C 334.66966,500.29532 360.32709,495.16341 378.75258,477.4665 C 401.2271,458.1989 413.26043,429.02935 414.67095,399.7559 C 418.65474,363.03966 409.33826,322.51658 380.90625,297.53125 C 341.67763,261.19921 276.99258,255.21574 232.71875,284.9375 C 218.52132,273.44896 208.95818,257.07448 204.6687,239.3493 C 196.44601,206.19057 200.87839,171.31463 207.25,138.15625 C 206.11458,138.625 204.97917,139.09375 203.84375,139.5625 z"
       style="opacity:0.09174314;fill:#000000;fill-opacity:1;fill-rule:evenodd;stroke:none;stroke-width:1;stroke-linecap:butt;stroke-linejoin:miter;stroke-miterlimit:4;stroke-dasharray:none;stroke-opacity:1" />
    <path
       style="opacity:1;fill:#000000;fill-opacity:1;fill-rule:evenodd;stroke:none;stroke-width:8;stroke-linecap:butt;stroke-linejoin:miter;stroke-miterlimit:4;stroke-dasharray:none;stroke-opacity:1"
       d="M 231.843,338.3302 C 147.1387,296.02508 151.3197,190.93748 151.3197,190.93748 C 151.3197,190.93748 159.25057,177.7208 169.83893,168.81945 C 180.42728,159.91808 194.24067,154.28471 194.24067,154.28471 C 184.03119,215.07309 191.85715,272.59342 233.42067,297.00474 C 233.42067,297.00474 269.62432,265.83636 323.85799,278.98642 C 365.21868,289.01517 405.78449,319.50029 405.31746,382.96459 C 404.94087,434.13853 388.71983,455.19175 372.04474,469.82873 C 351.04318,488.26337 328.251,492.23483 313.03819,497.23882 C 297.36426,502.39448 287.77528,507.43976 291.13254,519.65677 C 294.4898,531.87378 310.70764,528.73102 322.06034,522.03731 C 318.1657,542.29137 317.42875,542.03475 314.01992,548.51141 C 302.72945,553.80582 263.04206,562.51203 257.98251,524.29903 C 254.15874,495.23248 272.07149,482.14566 298.22204,471.24695 C 323.96785,460.51692 358.61198,455.50465 370.31203,398.87806 C 380.54371,349.35819 346.55375,320.96691 322.90615,313.20069 C 292.76071,303.30048 272.50125,302.48002 231.843,338.3302 z"
       id="path2237"
       sodipodi:nodetypes="ccsccsssssccssssc" />
    <path
       style="opacity:1;fill:#000000;fill-opacity:1;fill-rule:evenodd;stroke:none;stroke-width:8;stroke-linecap:butt;stroke-linejoin:miter;stroke-miterlimit:4;stroke-dasharray:none;stroke-opacity:1;display:inline"
       d="M 482.18761,338.3302 C 566.89191,296.02508 562.71091,190.93748 562.71091,190.93748 C 562.71091,190.93748 554.78004,177.7208 544.19168,168.81945 C 533.60333,159.91808 519.78994,154.28471 519.78994,154.28471 C 529.99942,215.07309 522.17346,272.59342 480.60994,297.00474 C 480.60994,297.00474 444.40629,265.83636 390.17262,278.98642 C 348.81193,289.01517 308.24612,319.50029 308.71315,382.96459 C 309.08974,434.13853 325.31078,455.19175 341.98587,469.82873 C 362.98743,488.26337 385.77961,492.23483 400.99242,497.23882 C 416.66635,502.39448 426.25533,507.43976 422.89807,519.65677 C 419.54081,531.87378 403.32297,528.73102 391.97027,522.03731 C 395.86491,542.29137 396.60186,542.03475 400.01069,548.51141 C 411.30116,553.80582 450.98855,562.51203 456.0481,524.29903 C 459.87187,495.23248 441.95912,482.14566 415.80857,471.24695 C 390.06276,460.51692 355.41863,455.50465 343.71858,398.87806 C 333.4869,349.35819 367.47686,320.96691 391.12446,313.20069 C 421.2699,303.30048 441.52936,302.48002 482.18761,338.3302 z"
       id="path4452"
       sodipodi:nodetypes="ccsccsssssccssssc" />
    <path
       style="opacity:1;fill:none;fill-opacity:1;fill-rule:evenodd;stroke:#000000;stroke-width:1;stroke-linecap:butt;stroke-linejoin:miter;stroke-miterlimit:4;stroke-dasharray:none;stroke-opacity:1;display:inline"
       d="M 507.5625,142.46875 C 514.82023,181.67852 519.37253,224.8635 500.78125,261.5625 C 495.76049,270.47129 489.56043,279.49689 480.59375,284.59375 C 427.80143,249.17166 346.97841,265.63933 314.22698,320.63357 C 295.0459,352.95898 295.67435,393.4361 304.49971,429.02198 C 312.58514,458.98501 335.62335,483.28346 363.90625,495.34375 C 377.83369,502.08428 393.30763,504.73072 407.625,510.375 C 409.88949,511.41759 415.54866,514.69161 412.65625,517.53125 C 407.16695,519.48089 401.4331,515.18854 396.53125,513.1875 C 389.56672,509.12212 382.92528,504.5499 375.6875,500.96875 C 384.71219,518.53537 380.35327,541.44644 394.46875,556.46875 C 408.16673,563.94174 425.78045,565.62274 440.65625,560.1875 C 461.48951,552.75296 470.08257,527.57672 465.5625,507.15625 C 462.73586,491.61851 452.32809,478.50997 438.53125,471.1875 C 416.11108,457.409 385.98693,455.06431 369,433.1875 C 352.84948,410.97248 346.22539,379.98056 357.84375,354.46875 C 370.94779,328.81315 401.61434,313.81991 429.75,318.375 C 449.89201,322.48519 465.57615,337.08187 480.5625,350.1875 C 529.16365,329.43953 560.93567,280.46077 569.15625,229.3125 C 571.66992,215.06095 574.21134,200.20202 571.28125,185.84375 C 557.66369,162.04853 533.20306,145.95556 506.96875,139.28125 C 507.16667,140.34375 507.36458,141.40625 507.5625,142.46875 z"
       id="path4454" />
    <path
       style="fill:none;fill-opacity:1;fill-rule:evenodd;stroke:#000000;stroke-width:1;stroke-linecap:butt;stroke-linejoin:miter;stroke-miterlimit:4;stroke-dasharray:none;stroke-opacity:1"
       d="M 203.84375,139.5625 C 178.17508,148.47955 152.23577,164.01134 141.46875,190.125 C 140.83084,240.86269 159.00956,293.97639 197.9375,327.75 C 208.5462,337.02484 220.67209,344.31066 233.375,350.25 C 251.3938,334.64663 271.8067,315.70754 297.40625,317.5 C 325.25308,319.35805 354.30932,337.97086 360.34375,366.46875 C 365.71271,392.80833 357.46893,421.72793 338.1875,440.5625 C 314.84342,460.26328 279.83275,460.58292 259.3637,484.40082 C 241.57472,504.49969 243.1337,540.53477 265.78125,556.28125 C 282.12742,566.55082 304.92602,565.56874 320.90625,555.09375 C 331.34599,543.19842 329.89877,525.99541 334.5625,511.78125 C 334.80288,506.7526 327.87239,504.97194 324.9375,508.625 C 317.61538,512.47026 309.284,520.23128 300.625,516.84375 C 299.7531,510.98245 307.7742,510.59752 311.40452,508.70989 C 334.66966,500.29532 360.32709,495.16341 378.75258,477.4665 C 401.2271,458.1989 413.26043,429.02935 414.67095,399.7559 C 418.65474,363.03966 409.33826,322.51658 380.90625,297.53125 C 341.67763,261.19921 276.99258,255.21574 232.71875,284.9375 C 218.52132,273.44896 208.95818,257.07448 204.6687,239.3493 C 196.44601,206.19057 200.87839,171.31463 207.25,138.15625 C 206.11458,138.625 204.97917,139.09375 203.84375,139.5625 z"
       id="path5427" />
    <rect
       style="opacity:0.22935779;fill:#0000ff;fill-opacity:1;stroke:none;stroke-width:1;stroke-miterlimit:4;stroke-dasharray:none;stroke-opacity:1"
       id="rect6442"
       width="569.01971"
       height="201.19112"
       x="97.530304"
       y="394.72919" />
    <rect
       y="394.72919"
       x="97.530304"
       height="201.19112"
       width="569.01971"
       id="rect6449"
       style="opacity:0.22935779;fill:#0000ff;fill-opacity:1;stroke:none;stroke-width:1;stroke-miterlimit:4;stroke-dasharray:none;stroke-opacity:1" />
  </g>
</svg>
