<?xml version="1.0" standalone="no"?>
<!DOCTYPE svg PUBLIC "-//W3C//DTD SVG 20010904//EN"
"http://www.w3.org/TR/2001/REC-SVG-20010904/DTD/svg10.dtd">
<svg
   style="fill:#000000;fill-opacity:0.5;stroke:none"
   width="595.275591"
   height="841.889764"
   id="svg1"
   sodipodi:docbase="/home/drake/prog/dragonchess-old/pics/"
   sodipodi:docname="/home/drake/prog/dragonchess-old/pics/elemental.svg"
   xmlns="http://www.w3.org/2000/svg"
   xmlns:sodipodi="http://sodipodi.sourceforge.net/DTD/sodipodi-0.dtd"
   xmlns:xlink="http://www.w3.org/1999/xlink">  <defs
     id="defs3">
  </defs>
  <sodipodi:namedview
     id="base"
     showgrid="true"
     gridoriginx="0.000000"
     gridoriginy="0.000000"
     gridspacingx="2.834646"
     gridspacingy="2.834646"
     gridtolerance="5.000000"
     gridcolor="#3f3fff"
     gridopacity="1.000000"
     guidetolerance="5.000000"
     guidecolor="#0000ff"
     guideopacity="0.498039"
     guidehicolor="#ff0000"
     guidehiopacity="0.498039">
  </sodipodi:namedview>
  <path
     transform="matrix(0.38038 0 0 0.304077 124.204 330.489)"
     style="stroke:#000000; fill:#fffa61; fill-opacity:100%; fill-rule:evenodd; stroke-opacity:100%; stroke-width:1pt; stroke-linejoin:miter; stroke-linecap:butt; "
     d="M 82.4366 348.119 C 79.8843 359.623 78.6922 364.368 79.6019 377.129 L 342.497 377.129 C 344.215 354.849 335.542 331.088 331.885 308.434 C 329.093 293.05 337.627 279.94 337.555 266.223 C 336.74 236.934 311.458 227.653 309.208 206.386 C 307.665 193.561 319.549 182.093 320.547 166.701 C 315.478 182.093 300.704 192.738 300.704 206.386 C 300.704 228.573 320.856 242.791 320.547 263.079 C 320.403 272.664 316.366 289.666 300.704 288.591 C 293.863 288.131 281.335 273.642 280.862 260.245 C 280.572 252.232 283.454 243.146 283.696 234.733 C 284.524 205.66 264.709 196.163 263.854 169.536 C 263.473 160.923 272.296 152.552 272.358 144.024 C 272.447 132.283 259.48 121.71 255.35 110.008 C 253.811 105.647 256.586 96.5412 256.586 91.8168 C 255.642 96.5412 251.605 105.454 252.515 110.008 C 254.439 119.628 263.396 128.801 263.854 138.355 C 264.476 157.788 243.308 158.186 244.011 192.213 C 244.227 202.739 243.173 218.872 237.415 224.63 C 232.779 229.266 220.241 229.618 212.83 223.394 C 206.974 218.232 200.404 206.589 201.492 197.882 C 204.183 176.353 223.642 154.291 224.169 132.686 C 224.587 115.551 206.63 98.9417 204.326 81.662 C 202.85 70.5951 211.85 59.9121 212.521 48.2644 C 207.452 62.7292 192.203 71.6158 192.988 87.3313 C 193.712 102.117 212.266 117.767 209.996 132.686 C 205.652 161.231 172.287 174.46 173.145 217.725 C 173.382 229.748 174.163 243.157 175.98 254.575 C 177.858 268.317 162.936 281.549 155.467 282.047 C 148.763 282.494 136.367 279.262 134.696 269.156 C 132.55 255.866 143.095 226.302 142.326 211.543 C 141.474 194.846 124.945 188.017 124.956 161.032 C 124.964 140.273 138.368 124.412 144.799 107.174 C 146.686 101.764 146.688 95.8353 147.633 90.1659 C 145.743 95.8353 144.63 101.842 141.964 107.174 C 131.401 128.299 111.276 123.895 107.948 169.536 C 105.964 197.057 121.628 202.352 119.287 231.898 C 116.226 270.221 90.9902 308.53 82.4366 348.119 z "
     id="Elemental"
     sodipodi:nodetypes="cccssscsssssssscsssssssscssssssssscssss">
  </path>

</svg>
