<?xml version="1.0" encoding="UTF-8" standalone="no"?>
<!-- Created with Inkscape (http://www.inkscape.org/) -->

<svg
   xmlns:dc="http://purl.org/dc/elements/1.1/"
   xmlns:cc="http://creativecommons.org/ns#"
   xmlns:rdf="http://www.w3.org/1999/02/22-rdf-syntax-ns#"
   xmlns:svg="http://www.w3.org/2000/svg"
   xmlns="http://www.w3.org/2000/svg"
   xmlns:xlink="http://www.w3.org/1999/xlink"
   xmlns:sodipodi="http://sodipodi.sourceforge.net/DTD/sodipodi-0.dtd"
   xmlns:inkscape="http://www.inkscape.org/namespaces/inkscape"
   width="16px"
   height="16px"
   id="svg2985"
   version="1.1"
   inkscape:version="0.48.0 r9654"
   sodipodi:docname="Nowy dokument 2">
  <defs
     id="defs2987">
    <linearGradient
       id="linearGradient3792">
      <stop
         style="stop-color:#f2f2f2;stop-opacity:1;"
         offset="0"
         id="stop3794" />
      <stop
         style="stop-color:#d1d1d1;stop-opacity:1;"
         offset="1"
         id="stop3796" />
    </linearGradient>
    <linearGradient
       inkscape:collect="always"
       xlink:href="#linearGradient3792"
       id="linearGradient3798"
       x1="4.4998422"
       y1="1.7681615"
       x2="4.4505367"
       y2="10.386025"
       gradientUnits="userSpaceOnUse" />
  </defs>
  <sodipodi:namedview
     id="base"
     pagecolor="#ffffff"
     bordercolor="#666666"
     borderopacity="1.0"
     inkscape:pageopacity="0.0"
     inkscape:pageshadow="2"
     inkscape:zoom="1"
     inkscape:cx="-132.19989"
     inkscape:cy="3.536962"
     inkscape:current-layer="layer1"
     showgrid="true"
     inkscape:grid-bbox="true"
     inkscape:document-units="px"
     inkscape:showpageshadow="false"
     showborder="false"
     inkscape:window-width="1536"
     inkscape:window-height="878"
     inkscape:window-x="56"
     inkscape:window-y="-8"
     inkscape:window-maximized="1" />
  <metadata
     id="metadata2990">
    <rdf:RDF>
      <cc:Work
         rdf:about="">
        <dc:format>image/svg+xml</dc:format>
        <dc:type
           rdf:resource="http://purl.org/dc/dcmitype/StillImage" />
        <dc:title></dc:title>
      </cc:Work>
    </rdf:RDF>
  </metadata>
  <g
     id="layer1"
     inkscape:label="Layer 1"
     inkscape:groupmode="layer">
    <path
       sodipodi:type="inkscape:offset"
       inkscape:radius="0.4375"
       inkscape:original="M 1.59375 1.5 C 1.3493145 1.5 1.15625 1.7353544 1.15625 2.03125 L 1.15625 10.1875 C 1.15625 10.483396 1.3493145 10.71875 1.59375 10.71875 L 4.9375 10.71875 C 4.905508 11.250223 4.8027282 11.901771 4.5625 12.40625 C 4.0980588 13.381576 2.96875 14.1875 2.96875 14.1875 C 2.96875 14.1875 7.1430984 13.987177 8.5 10.71875 L 14.78125 10.71875 C 15.025686 10.71875 15.21875 10.483396 15.21875 10.1875 L 15.21875 2.03125 C 15.21875 1.7353544 15.025686 1.5 14.78125 1.5 L 1.59375 1.5 z "
       style="fill:#393939;fill-opacity:1;stroke:none"
       id="path3800"
       d="m 1.59375,1.0625 c -0.5252664,0 -0.875,0.4825492 -0.875,0.96875 l 0,8.15625 c 0,0.486201 0.3497341,0.96875 0.875,0.96875 l 2.8125,0 c -0.053832,0.374457 -0.1121643,0.773045 -0.25,1.0625 -0.3863058,0.811242 -1.4375,1.625 -1.4375,1.625 A 0.43754375,0.43754375 0 0 0 3,14.625 c 0,0 4.1546261,-0.206218 5.75,-3.46875 l 6.03125,0 c 0.525266,0 0.875,-0.48255 0.875,-0.96875 l 0,-8.15625 c 0,-0.4862003 -0.349734,-0.96875 -0.875,-0.96875 l -13.1875,0 z" />
    <path
       sodipodi:type="inkscape:offset"
       inkscape:radius="-0.26272762"
       inkscape:original="M 1.59375 1.46875 C 1.3493145 1.46875 1.15625 1.7041044 1.15625 2 L 1.15625 10.15625 C 1.15625 10.452146 1.3493145 10.6875 1.59375 10.6875 L 4.9375 10.6875 C 4.905508 11.218972 4.8027282 11.870521 4.5625 12.375 C 4.0980588 13.350326 2.96875 14.15625 2.96875 14.15625 C 2.96875 14.15625 7.1430984 13.955926 8.5 10.6875 L 14.78125 10.6875 C 15.025686 10.6875 15.21875 10.452146 15.21875 10.15625 L 15.21875 2 C 15.21875 1.7041044 15.025686 1.46875 14.78125 1.46875 L 1.59375 1.46875 z "
       style="fill:url(#linearGradient3798);fill-opacity:1.0;stroke:none"
       id="path3786"
       d="m 1.59375,1.71875 c -0.075791,0 -0.1875,0.099636 -0.1875,0.28125 l 0,8.15625 c 0,0.181614 0.1117088,0.28125 0.1875,0.28125 l 3.34375,0 a 0.26275389,0.26275389 0 0 1 0.0625,0 0.26275389,0.26275389 0 0 1 0.15625,0.09375 0.26275389,0.26275389 0 0 1 0.03125,0.125 0.26275389,0.26275389 0 0 1 0,0.0625 C 5.1542539,11.271055 5.0779743,11.942504 4.8125,12.5 4.5780597,12.992324 4.2094136,13.421613 3.875,13.75 5.1319788,13.497642 7.3444862,12.774899 8.25,10.59375 a 0.26275389,0.26275389 0 0 1 0.09375,-0.125 0.26275389,0.26275389 0 0 1 0.125,-0.03125 0.26275389,0.26275389 0 0 1 0.03125,0 l 6.28125,0 c 0.07579,0 0.1875,-0.09964 0.1875,-0.28125 l 0,-8.15625 c 0,-0.1816137 -0.111708,-0.28125 -0.1875,-0.28125 l -13.1875,0 z" />
    <text
       xml:space="preserve"
       style="font-size:11px;font-style:normal;font-weight:normal;line-height:125%;letter-spacing:0px;word-spacing:0px;fill:#000000;fill-opacity:1;stroke:none;font-family:Sans"
       x="4.0625"
       y="7.6523046"
       id="text3788"
       sodipodi:linespacing="125%"><tspan
         sodipodi:role="line"
         id="tspan3790"
         x="4.0625"
         y="7.6523046"
         style="font-style:normal;font-variant:normal;font-weight:normal;font-stretch:normal;font-family:Serif;-inkscape-font-specification:Serif">...</tspan></text>
  </g>
</svg>
